<svg width="141" height="47" viewBox="0 0 141 47" fill="none" xmlns="http://www.w3.org/2000/svg">
<path d="M59.0164 7.01648C51.8164 -0.983525 38.3497 -0.316858 32.5164 1.01647L42.5164 40.0165C53.5164 41.0165 60.5164 32.5165 62.0164 30.0165C63.5164 27.5165 68.0164 17.0165 59.0164 7.01648Z" fill="#71D3FF"/>
<path d="M50.0164 20.0164C50.4164 27.6164 45.5164 33.5164 43.0164 35.5164L52.0164 46.0164C48.683 46.1831 38.5164 46.4165 24.5164 46.0164C7.01636 45.5164 0.516372 33.5164 0.0163717 22.0164C-0.483628 10.5164 10.5164 0.51644 26.5164 0.0164404C42.5164 -0.48356 49.5164 10.5164 50.0164 20.0164Z" fill="#0369A1"/>
<circle cx="14.0164" cy="22" r="4" fill="white"/>
<circle cx="25.0164" cy="22" r="4" fill="white"/>
<circle cx="36.0164" cy="22" r="4" fill="white"/>
<path d="M85.5764 32.432C89.4884 32.432 92.2964 30.512 92.2964 26.84C92.2964 23.024 89.0804 22.184 86.5844 21.56C85.0244 21.152 83.7524 20.84 83.7524 19.88C83.7524 19.088 84.5444 18.728 85.3604 18.728C86.3204 18.728 87.1124 19.232 87.1124 20.312H91.7684C91.7684 16.88 89.4404 14.816 85.4084 14.816C81.4484 14.816 79.0244 16.712 79.0244 20.024C79.0244 23.84 82.1204 24.584 84.5444 25.184C86.1524 25.568 87.4724 25.88 87.4724 26.936C87.4724 27.848 86.5364 28.376 85.5764 28.376C84.5204 28.376 83.5844 27.776 83.5844 26.576H78.8084C78.8084 30.248 81.4724 32.432 85.5764 32.432ZM107.846 25.4C107.846 21.608 104.966 18.632 100.79 18.632C96.7101 18.632 93.7581 21.56 93.7581 25.52C93.7581 29.48 96.7341 32.432 100.79 32.432C104.03 32.432 106.67 30.584 107.582 27.632H103.118C102.71 28.4 101.822 28.856 100.79 28.856C99.3741 28.856 98.4381 28.088 98.1501 26.6H107.774C107.822 26.192 107.846 25.808 107.846 25.4ZM100.79 22.136C102.134 22.136 103.07 22.832 103.454 24.128H98.2221C98.5821 22.832 99.4941 22.136 100.79 22.136ZM117.691 19.04L115.267 26.72L112.819 19.04H107.923L113.203 32H117.235L122.443 19.04H117.691ZM123.917 17.432H128.333V13.64H123.917V17.432ZM123.893 32H128.357V19.04H123.893V32ZM138.19 28.112C137.254 28.112 136.678 27.536 136.678 26.624V22.496H139.822V19.04H136.582V15.272H135.646L129.838 21.44V22.496H132.214V27.368C132.214 30.248 133.966 32 136.822 32H139.894V28.112H138.19Z" fill="#0369A1"/>
</svg>
